<svg width="192" height="164" viewBox="0 0 192 164" fill="none" xmlns="http://www.w3.org/2000/svg">
<path fill-rule="evenodd" clip-rule="evenodd" d="M81.767 56.0627C61.8847 56.0627 45.767 72.1805 45.767 92.0627C45.767 111.945 61.8847 128.063 81.767 128.063H153.767C173.649 128.063 189.767 111.945 189.767 92.0627C189.767 72.1805 173.649 56.0627 153.767 56.0627H81.767ZM81.767 72.0627H153.767C164.813 72.0627 173.767 81.017 173.767 92.0627C173.767 103.108 164.813 112.063 153.767 112.063H81.767C70.7213 112.063 61.767 103.108 61.767 92.0627C61.767 81.017 70.7213 72.0627 81.767 72.0627Z" fill="black"/>
<path d="M174 5C174 2.23858 176.238 0 179 0H187C189.761 0 192 2.23858 192 5V123C192 125.761 189.761 128 187 128H179C176.238 128 174 125.761 174 123V5Z" fill="black"/>
<path d="M21.9999 60.9999C21.9999 58.2385 24.2384 55.9999 26.9999 55.9999H32.9999C35.7613 55.9999 37.9999 58.2385 37.9999 60.9999V131C37.9999 133.761 35.7613 136 32.9999 136H26.9999C24.2384 136 21.9999 133.761 21.9999 131V60.9999Z" fill="black"/>
<path d="M37.4538 31.8195C37.4538 36.2378 33.8721 39.8195 29.4538 39.8195C25.0355 39.8195 21.4538 36.2378 21.4538 31.8195C21.4538 27.4012 25.0355 23.8195 29.4538 23.8195C33.8721 23.8195 37.4538 27.4012 37.4538 31.8195Z" fill="black"/>
<path d="M0.524237 151.286C1.70381 149.367 9.71025 155.255 16.1982 151.899C22.6862 148.543 22 133.348 22 129.932C22 126.517 37.9376 128.38 37.9376 129.819C37.9377 131.257 39.201 151.42 30.3538 159.092C22.7458 165.689 7.38992 164.222 2.18336 162.721C1.05324 162.395 0.43626 161.382 0.316446 160.212C0.0414982 157.527 -0.316777 152.653 0.524237 151.286Z" fill="black"/>
</svg>
